<?xml version="1.0" standalone="no"?>
<!DOCTYPE svg PUBLIC "-//W3C//DTD SVG 20010904//EN"
 "http://www.w3.org/TR/2001/REC-SVG-20010904/DTD/svg10.dtd">
<svg version="1.0" xmlns="http://www.w3.org/2000/svg"
 width="1080.000000pt" height="1080.000000pt" viewBox="0 0 1080.000000 1080.000000"
 preserveAspectRatio="xMidYMid meet">

<g transform="translate(0.000000,1080.000000) scale(0.100000,-0.100000)"
fill="#000000" stroke="none">
<path d="M0 5400 l0 -5400 5400 0 5400 0 0 5400 0 5400 -5400 0 -5400 0 0
-5400z m7980 1474 l0 -1325 -167 5 c-93 4 -214 9 -270 12 -57 3 -103 3 -103 0
0 -12 130 -1396 140 -1486 47 -447 -64 -938 -294 -1295 -372 -578 -1020 -927
-1926 -1036 -162 -20 -235 -23 -580 -23 -244 -1 -450 4 -540 12 -378 33 -720
81 -995 138 -145 31 -406 101 -419 114 -8 8 40 2859 48 2868 2 2 21 -5 43 -16
124 -64 504 -160 818 -209 164 -25 205 -27 460 -28 305 0 449 12 640 52 382
79 562 248 567 530 2 86 -21 345 -32 362 -4 8 -362 -5 -1211 -44 -662 -30
-1205 -55 -1206 -55 -2 0 -3 619 -3 1375 l0 1375 2515 0 2515 0 0 -1326z"/>
</g>
</svg>
